<svg xmlns="http://www.w3.org/2000/svg" viewBox="-175 -125 800 800">
  <circle cx="225" cy="275" r="400" fill="#FFFFFF"/>
  <circle cx="225" cy="275" r="390" fill="#7646F1"/>
  <path fill="#4E2EAB" transform="translate(15, 20)" d="M32 96c0-17.7 14.3-32 32-32l0 96c0 17.7 14.3 32 32 32H288c17.7 0 32-14.3 32-32V65.8c4.5 1.6 8.7 4.2 12.1 7.6l74.5 74.5c6 6 9.4 14.1 9.4 22.6V416c0 17.7-14.3 32-32 32H64c-17.7 0-32-14.3-32-32V96zM96 64H288v96H96V64zM0 96V416c0 35.3 28.7 64 64 64H384c35.3 0 64-28.7 64-64V170.5c0-17-6.7-33.3-18.7-45.3L354.7 50.7c-12-12-28.3-18.7-45.3-18.7H64C28.7 32 0 60.7 0 96zM272 320a48 48 0 1 1 -96 0 48 48 0 1 1 96 0zm-48-80a80 80 0 1 0 0 160 80 80 0 1 0 0-160z"/>
  <path fill="white" d="M32 96c0-17.7 14.3-32 32-32l0 96c0 17.7 14.3 32 32 32H288c17.7 0 32-14.3 32-32V65.8c4.5 1.6 8.7 4.2 12.1 7.6l74.5 74.5c6 6 9.4 14.1 9.4 22.6V416c0 17.7-14.3 32-32 32H64c-17.7 0-32-14.3-32-32V96zM96 64H288v96H96V64zM0 96V416c0 35.3 28.7 64 64 64H384c35.3 0 64-28.7 64-64V170.5c0-17-6.7-33.3-18.7-45.3L354.7 50.7c-12-12-28.3-18.7-45.3-18.7H64C28.7 32 0 60.7 0 96zM272 320a48 48 0 1 1 -96 0 48 48 0 1 1 96 0zm-48-80a80 80 0 1 0 0 160 80 80 0 1 0 0-160z"/>
</svg>